<svg width="17" height="11" viewBox="0 0 17 11" version="1.1" xmlns="http://www.w3.org/2000/svg" xmlns:xlink="http://www.w3.org/1999/xlink">
<title>Aa</title>
<desc>Created using Figma</desc>
<g id="Canvas" transform="translate(4046 1673)">
<rect x="-4046" y="-1673" width="17" height="11" fill="#FFFFFF"/>
<clipPath id="clip-0" clip-rule="evenodd">
<path d="M -5021 -1930L -3997 -1930L -3997 -1008L -5021 -1008L -5021 -1930Z" fill="#FFFFFF"/>
</clipPath>
<g id="SIS Ch1-1" clip-path="url(#clip-0)">
<g id="Reading Nav">
<g id="Nav">
<g id="Aa">
<use xlink:href="#path0_fill" transform="translate(-4046.4 -1676)" fill="#9B9B9B"/>
</g>
</g>
</g>
</g>
</g>
<defs>
<path id="path0_fill" d="M 7.34332 10.4023L 3.1734 10.4023L 2.23688 13L 0.88336 13L 4.68414 3.04688L 5.83258 3.04688L 9.6402 13L 8.29352 13L 7.34332 10.4023ZM 3.56988 9.32227L 6.95367 9.32227L 5.25836 4.66699L 3.56988 9.32227ZM 15.6282 13C 15.5553 12.8542 15.496 12.5944 15.4505 12.2207C 14.8626 12.8314 14.1608 13.1367 13.345 13.1367C 12.6158 13.1367 12.0165 12.9316 11.5471 12.5215C 11.0823 12.1068 10.8499 11.5827 10.8499 10.9492C 10.8499 10.179 11.1415 9.58203 11.7249 9.1582C 12.3128 8.72982 13.1376 8.51562 14.1995 8.51562L 15.43 8.51562L 15.43 7.93457C 15.43 7.49251 15.2978 7.1416 15.0335 6.88184C 14.7692 6.61751 14.3795 6.48535 13.8645 6.48535C 13.4134 6.48535 13.0351 6.59928 12.7298 6.82715C 12.4244 7.05501 12.2718 7.33073 12.2718 7.6543L 11.0003 7.6543C 11.0003 7.28516 11.1302 6.92969 11.3899 6.58789C 11.6542 6.24154 12.0097 5.9681 12.4563 5.76758C 12.9075 5.56706 13.402 5.4668 13.9397 5.4668C 14.7919 5.4668 15.4596 5.68099 15.9427 6.10938C 16.4257 6.5332 16.6764 7.11882 16.6946 7.86621L 16.6946 11.2705C 16.6946 11.9495 16.7812 12.4896 16.9544 12.8906L 16.9544 13L 15.6282 13ZM 13.5296 12.0361C 13.9261 12.0361 14.302 11.9336 14.6575 11.7285C 15.013 11.5234 15.2705 11.2568 15.43 10.9287L 15.43 9.41113L 14.4388 9.41113C 12.8893 9.41113 12.1145 9.86458 12.1145 10.7715C 12.1145 11.168 12.2467 11.4779 12.511 11.7012C 12.7753 11.9245 13.1149 12.0361 13.5296 12.0361Z"/>
</defs>
</svg>
