<svg width="21" height="20" viewBox="0 0 21 20" version="1.1" xmlns="http://www.w3.org/2000/svg" xmlns:xlink="http://www.w3.org/1999/xlink">
<title>Group 10</title>
<desc>Created using Figma</desc>
<g id="Canvas" transform="translate(-662 -662)">
<g id="Group 10">
<g id="Oval Copy" opacity="0.7">
<use xlink:href="#path0_fill" transform="translate(662.783 662)" fill="url(#paint0_linear)"/>
</g>
<g id="Group 6">
<g id="Page 1">
<use xlink:href="#path1_stroke" transform="translate(667.464 667.531)" fill="#FFFFFF"/>
</g>
</g>
</g>
</g>
<defs>
<linearGradient id="paint0_linear" x1="0" y1="0" x2="1" y2="0" gradientUnits="userSpaceOnUse" gradientTransform="matrix(20 10.2981 -10.2981 20 3.84466e-08 4.84779)">
<stop offset="0" stop-color="#C2E9FB"/>
<stop offset="1" stop-color="#A1C4FD"/>
</linearGradient>
<path id="path0_fill" fill-rule="evenodd" d="M 10 20C 15.5228 20 20 15.5228 20 10C 20 4.47715 15.5228 0 10 0C 4.47715 0 0 4.47715 0 10C 0 15.5228 4.47715 20 10 20Z"/>
<path id="path1_stroke" d="M 10.74 1.02829L 11.1432 1.32394C 11.2465 1.18312 11.2688 0.998627 11.2021 0.837252C 11.1353 0.675877 10.9893 0.561001 10.8167 0.534208L 10.74 1.02829ZM 8.99057 0.69164L 8.62605 1.03387C 8.70195 1.11471 8.80256 1.16803 8.91208 1.18544L 8.99057 0.69164ZM 5.25795 2.68946L 5.23285 3.18883C 5.38963 3.19671 5.541 3.13051 5.64165 3.01005C 5.74229 2.88959 5.78053 2.72886 5.7449 2.57598L 5.25795 2.68946ZM 0.743451 0.400854L 1.13103 0.0849735C 1.02741 -0.0421725 0.868013 -0.110408 0.704487 -0.0976259C 0.540961 -0.0848439 0.394104 0.00732998 0.311494 0.149033L 0.743451 0.400854ZM 3.26236 5.96397L 3.72264 6.15926C 3.77662 6.03203 3.77553 5.88812 3.71963 5.76172C 3.66372 5.63532 3.55799 5.5377 3.42754 5.49204L 3.26236 5.96397ZM 0 7.69232L 0.0584698 7.19575C -0.172822 7.16852 -0.392288 7.30458 -0.470761 7.52385C -0.549233 7.74312 -0.465929 7.98753 -0.269878 8.11323L 0 7.69232ZM 9.58355 2.66095L 9.20538 2.33386C 9.13353 2.41693 9.09103 2.52135 9.08445 2.63098L 9.58355 2.66095ZM 10.8167 0.534208C 9.93833 0.399746 9.59909 0.283945 9.06907 0.19784L 8.91208 1.18544C 9.35829 1.25452 9.69928 1.37075 10.6633 1.52237L 10.8167 0.534208ZM 9.3551 0.349408C 8.86471 -0.17292 8.16523 -0.5 7.39162 -0.5L 7.39162 0.5C 7.87833 0.5 8.31721 0.704912 8.62605 1.03387L 9.3551 0.349408ZM 7.39162 -0.5C 5.65437 -0.5 4.37897 1.12068 4.771 2.80294L 5.7449 2.57598C 5.49834 1.51796 6.30133 0.5 7.39162 0.5L 7.39162 -0.5ZM 5.28304 2.19009C 3.60951 2.10599 2.12522 1.30483 1.13103 0.0849735L 0.355869 0.716734C 1.52188 2.14742 3.26573 3.08998 5.23285 3.18883L 5.28304 2.19009ZM 0.311494 0.149033C 0.0982815 0.514764 0.0262555 1.04189 0.0375721 1.57096C 0.0501949 2.10402 0.157024 2.75889 0.3599 3.37538C 0.769813 4.61084 1.62336 5.92004 3.09718 6.43589L 3.42754 5.49204C 2.3594 5.11818 1.66654 4.13803 1.30902 3.06047C 1.12818 2.52045 1.04603 2.01288 1.03734 1.54958C 1.02735 1.0823 1.10168 0.779148 1.17541 0.652674L 0.311494 0.149033ZM 2.80208 5.76867C 2.32448 6.89431 1.08323 7.31642 0.0584698 7.19575L -0.0584698 8.18889C 1.24108 8.34191 3.01379 7.82993 3.72264 6.15926L 2.80208 5.76867ZM -0.269878 8.11323C 0.757387 8.76668 2.04479 9.17068 3.3578 9.17648L 3.3578 8.17648C 2.19677 8.18229 1.18119 7.86093 0.269878 7.27141L -0.269878 8.11323ZM 3.3578 9.17648C 5.5283 9.17648 7.17626 8.35683 8.29958 7.11581C 9.38357 5.90403 9.98436 4.24348 10.0826 2.69092L 9.08445 2.63098C 9.00475 4.04256 8.52593 5.38978 7.55819 6.44473C 6.62976 7.47044 5.25384 8.17648 3.3578 8.17648L 3.3578 9.17648ZM 9.96172 2.98805C 10.4815 2.38019 10.7031 1.9204 11.1432 1.32394L 10.3368 0.732633C 9.84475 1.4074 9.64445 1.83311 9.20538 2.33386L 9.96172 2.98805Z"/>
</defs>
</svg>
