<svg width="21" height="20" viewBox="0 0 21 20" version="1.1" xmlns="http://www.w3.org/2000/svg" xmlns:xlink="http://www.w3.org/1999/xlink">
<title>Group 11</title>
<desc>Created using Figma</desc>
<g id="Canvas" transform="translate(-694 -662)">
<g id="Group 11">
<g id="Oval Copy 2" opacity="0.7">
<use xlink:href="#path0_fill" transform="translate(694.892 662)" fill="url(#paint0_linear)"/>
</g>
<g id="Group">
<g id="Stroke 3">
<use xlink:href="#path1_stroke" transform="translate(702.093 669.809)" fill="#FFFFFF"/>
</g>
<g id="Path 3">
<use xlink:href="#path2_stroke" transform="translate(703.167 667.003)" fill="#FFFFFF"/>
</g>
</g>
</g>
</g>
<defs>
<linearGradient id="paint0_linear" x1="0" y1="0" x2="1" y2="0" gradientUnits="userSpaceOnUse" gradientTransform="matrix(20 10.2981 -10.2981 20 3.84466e-08 4.84779)">
<stop offset="0" stop-color="#C2E9FB"/>
<stop offset="1" stop-color="#A1C4FD"/>
</linearGradient>
<path id="path0_fill" fill-rule="evenodd" d="M 10 20C 15.5228 20 20 15.5228 20 10C 20 4.47715 15.5228 0 10 0C 4.47715 0 0 4.47715 0 10C 0 15.5228 4.47715 20 10 20Z"/>
<path id="path1_stroke" d="M 4.78767 0.5C 5.06382 0.5 5.28767 0.276142 5.28767 0C 5.28767 -0.276142 5.06382 -0.5 4.78767 -0.5L 4.78767 0.5ZM 0 -0.5C -0.276142 -0.5 -0.5 -0.276142 -0.5 0C -0.5 0.276142 -0.276142 0.5 0 0.5L 0 -0.5ZM 4.78767 -0.5L 0 -0.5L 0 0.5L 4.78767 0.5L 4.78767 -0.5Z"/>
<path id="path2_stroke" d="M 0.5 0C 0.5 -0.276142 0.276142 -0.5 0 -0.5C -0.276142 -0.5 -0.5 -0.276142 -0.5 0L 0.5 0ZM 0 7.25757L -0.5 7.25757L -0.5 7.29068L -0.495634 7.3235L 0 7.25757ZM 4.71213 8.34578C 4.78121 8.07841 4.62046 7.80568 4.3531 7.7366C 4.08574 7.66752 3.813 7.82827 3.74392 8.09563L 4.71213 8.34578ZM -0.5 0L -0.5 7.25757L 0.5 7.25757L 0.5 0L -0.5 0ZM 0 7.25757C -0.495634 7.3235 -0.49561 7.32368 -0.495585 7.32387C -0.495575 7.32395 -0.495548 7.32414 -0.495528 7.32429C -0.495502 7.32448 -0.495441 7.32494 -0.49539 7.32532C -0.495318 7.32584 -0.495162 7.32698 -0.495016 7.32804C -0.494786 7.32969 -0.494338 7.33288 -0.493865 7.33616C -0.49305 7.34179 -0.491578 7.35168 -0.489854 7.3627C -0.486692 7.38284 -0.48122 7.41584 -0.474228 7.45397C -0.460917 7.52623 -0.437904 7.63841 -0.406178 7.765C -0.344447 8.00951 -0.231898 8.36712 -0.0656536 8.71047C 0.267656 9.39217 0.919832 10.2241 2.08386 10.2241L 2.08386 9.22412C 1.49216 9.22412 1.1024 8.8228 0.832713 8.27122C 0.697459 7.99793 0.618243 7.7389 0.563583 7.52094C 0.537114 7.41628 0.520776 7.33576 0.509284 7.27313C 0.503875 7.24382 0.500583 7.22382 0.498081 7.20784C 0.496974 7.2008 0.496388 7.19683 0.495854 7.19313C 0.495653 7.19175 0.495604 7.19139 0.495505 7.19067C 0.495486 7.19054 0.495502 7.19065 0.495511 7.19072C 0.4955 7.19064 0.495563 7.19111 0.495558 7.19107C 0.495568 7.19114 0.495587 7.19129 0.495592 7.19132C 0.495612 7.19147 0.495634 7.19163 0 7.25757ZM 2.08386 10.2241C 3.12794 10.2241 3.79797 9.768 4.19677 9.29452C 4.38487 9.06744 4.52314 8.82042 4.59535 8.66193C 4.63388 8.57621 4.66454 8.49509 4.68104 8.44701C 4.69023 8.41996 4.6983 8.39418 4.70251 8.38007C 4.70502 8.37157 4.70749 8.36289 4.70869 8.35858C 4.70948 8.35572 4.71036 8.35249 4.71074 8.35106C 4.71102 8.34999 4.71138 8.34867 4.71152 8.34813C 4.71163 8.3477 4.71179 8.3471 4.71184 8.34688C 4.71189 8.34669 4.71197 8.34641 4.71199 8.34631C 4.71206 8.34604 4.71213 8.34578 4.22803 8.2207C 3.74392 8.09563 3.74399 8.09538 3.74405 8.09513C 3.74407 8.09505 3.74414 8.09481 3.74418 8.09466C 3.74414 8.09479 3.74446 8.09356 3.7444 8.09382C 3.74435 8.09399 3.74483 8.09218 3.74474 8.09253C 3.74474 8.09251 3.74503 8.09144 3.74503 8.09145C 3.74541 8.09007 3.74472 8.09259 3.74397 8.09511C 3.74163 8.10301 3.73963 8.10954 3.73478 8.1236C 3.72317 8.15773 3.70978 8.19406 3.68445 8.24929C 3.62897 8.3727 3.5604 8.50153 3.43192 8.65031C 3.19758 8.92853 2.79552 9.22412 2.08386 9.22412L 2.08386 10.2241Z"/>
</defs>
</svg>
