<svg width="20" height="20" viewBox="0 0 20 20" version="1.1" xmlns="http://www.w3.org/2000/svg" xmlns:xlink="http://www.w3.org/1999/xlink">
<title>Group 12</title>
<desc>Created using Figma</desc>
<g id="Canvas" transform="translate(-727 -662)">
<g id="Group 12">
<g id="Oval Copy 3" opacity="0.7">
<use xlink:href="#path0_fill" transform="translate(727 662)" fill="url(#paint0_linear)"/>
</g>
<g id="Page 1">
<g id="Fill 1">
<use xlink:href="#path1_fill" transform="translate(732 665.5)" fill="#FFFFFF"/>
</g>
<g id="Fill 4">
<use xlink:href="#path2_fill" transform="translate(733.496 668.815)" fill="#FFFFFF"/>
</g>
</g>
</g>
</g>
<defs>
<linearGradient id="paint0_linear" x1="0" y1="0" x2="1" y2="0" gradientUnits="userSpaceOnUse" gradientTransform="matrix(20 10.2981 -10.2981 20 3.84466e-08 4.84779)">
<stop offset="0" stop-color="#C2E9FB"/>
<stop offset="1" stop-color="#A1C4FD"/>
</linearGradient>
<path id="path0_fill" fill-rule="evenodd" d="M 10 20C 15.5228 20 20 15.5228 20 10C 20 4.47715 15.5228 0 10 0C 4.47715 0 0 4.47715 0 10C 0 15.5228 4.47715 20 10 20Z"/>
<path id="path1_fill" fill-rule="evenodd" d="M 5.61695 9.14977C 4.90284 9.14977 3.65618 8.85686 2.82564 7.03311C 2.68693 6.72907 2.82128 6.37008 3.12557 6.23137C 3.43057 6.09291 3.7886 6.22774 3.9273 6.53154C 4.22577 7.18682 4.76632 7.96169 5.65447 7.93893C 6.56926 7.91424 7.55642 7.07039 8.00207 5.93266C 8.46128 4.76031 8.36009 3.41997 7.74475 2.51801C 7.16112 1.66254 6.13111 1.21035 4.76583 1.21035C 2.4727 1.21035 1.63659 2.94454 1.43495 3.47613C 1.03868 4.52042 1.17714 5.61772 1.77142 6.14447C 2.02148 6.3662 2.04472 6.74892 1.82299 6.99898C 1.60125 7.24903 1.21854 7.27227 0.96872 7.05054C -0.00900161 6.18368 -0.276489 4.57488 0.303269 3.04694C 0.861967 1.57394 2.32794 0 4.76583 0C 7.01902 0 8.17321 0.998297 8.7445 1.83586C 9.59175 3.07744 9.73892 4.81647 9.12915 6.37395C 8.50388 7.96992 7.0885 9.11104 5.68715 9.1488C 5.6644 9.14953 5.64116 9.14977 5.61695 9.14977Z"/>
<path id="path2_fill" fill-rule="evenodd" d="M 0.605784 9.51435C 0.560275 9.51435 0.513555 9.50927 0.46732 9.49837C 0.141735 9.42212 -0.0601513 9.09629 0.0161009 8.77095L 1.96186 0.467218C 2.03787 0.142118 2.36442 -0.0604949 2.6888 0.0162413C 3.01438 0.0924934 3.21627 0.418078 3.14002 0.74342L 1.1945 9.04715C 1.12914 9.32602 0.880534 9.51435 0.605784 9.51435Z"/>
</defs>
</svg>
