<svg width="21" height="20" viewBox="0 0 21 20" version="1.1" xmlns="http://www.w3.org/2000/svg" xmlns:xlink="http://www.w3.org/1999/xlink">
<title>Group 8</title>
<desc>Created using Figma</desc>
<g id="Canvas" transform="translate(-631 -662)">
<g id="Group 8">
<g id="Oval" opacity="0.7">
<use xlink:href="#path0_fill" transform="translate(631.175 662)" fill="url(#paint0_linear)"/>
</g>
<g id="Group 7">
<g id="Page 1">
<g id="Stroke 1">
<use xlink:href="#path1_stroke" transform="translate(636.495 667.081)" fill="#FFFFFF"/>
</g>
<g id="Stroke 3">
<use xlink:href="#path2_stroke" transform="translate(643.019 667.081)" fill="#FFFFFF"/>
</g>
<g id="Stroke 4">
<use xlink:href="#path3_stroke" transform="translate(638.974 669.543)" fill="#FFFFFF"/>
</g>
<g id="Stroke 5">
<use xlink:href="#path4_stroke" transform="translate(636.495 670.659)" fill="#FFFFFF"/>
</g>
<g id="Stroke 6">
<use xlink:href="#path4_stroke" transform="translate(643.41 670.659)" fill="#FFFFFF"/>
</g>
</g>
</g>
</g>
</g>
<defs>
<linearGradient id="paint0_linear" x1="0" y1="0" x2="1" y2="0" gradientUnits="userSpaceOnUse" gradientTransform="matrix(20 10.2981 -10.2981 20 3.84466e-08 4.84779)">
<stop offset="0" stop-color="#C2E9FB"/>
<stop offset="1" stop-color="#A1C4FD"/>
</linearGradient>
<path id="path0_fill" fill-rule="evenodd" d="M 10 20C 15.5228 20 20 15.5228 20 10C 20 4.47715 15.5228 0 10 0C 4.47715 0 0 4.47715 0 10C 0 15.5228 4.47715 20 10 20Z"/>
<path id="path1_stroke" d="M 0 9.13263L -0.5 9.13263C -0.5 9.40877 -0.276142 9.63263 1.11022e-16 9.63263L 0 9.13263ZM 9.13263 9.13263L 9.13263 9.63263C 9.40877 9.63263 9.63263 9.40877 9.63263 9.13263L 9.13263 9.13263ZM 9.13263 0L 9.63263 0C 9.63263 -0.276142 9.40877 -0.5 9.13263 -0.5L 9.13263 0ZM 0 0L 0 -0.5C -0.276142 -0.5 -0.5 -0.276142 -0.5 1.11022e-16L 0 0ZM 0 9.63263L 9.13263 9.63263L 9.13263 8.63263L 0 8.63263L 0 9.63263ZM 9.63263 9.13263L 9.63263 0L 8.63263 0L 8.63263 9.13263L 9.63263 9.13263ZM 9.13263 -0.5L 0 -0.5L 0 0.5L 9.13263 0.5L 9.13263 -0.5ZM -0.5 0L -0.5 9.13263L 0.5 9.13263L 0.5 0L -0.5 0Z"/>
<path id="path2_stroke" d="M 0 2.60932L -0.5 2.60932C -0.5 2.88546 -0.276142 3.10932 1.11022e-16 3.10932L 0 2.60932ZM 2.60932 2.60932L 2.60932 3.10932C 2.88546 3.10932 3.10932 2.88546 3.10932 2.60932L 2.60932 2.60932ZM 2.60932 0L 3.10932 0C 3.10932 -0.276142 2.88546 -0.5 2.60932 -0.5L 2.60932 0ZM 0 0L 0 -0.5C -0.276142 -0.5 -0.5 -0.276142 -0.5 1.11022e-16L 0 0ZM 0 3.10932L 2.60932 3.10932L 2.60932 2.10932L 0 2.10932L 0 3.10932ZM 3.10932 2.60932L 3.10932 0L 2.10932 0L 2.10932 2.60932L 3.10932 2.60932ZM 2.60932 -0.5L 0 -0.5L 0 0.5L 2.60932 0.5L 2.60932 -0.5ZM -0.5 0L -0.5 2.60932L 0.5 2.60932L 0.5 0L -0.5 0Z"/>
<path id="path3_stroke" d="M 3.67492 2.08746C 3.67492 2.96411 2.96411 3.67492 2.08746 3.67492L 2.08746 4.67492C 3.5164 4.67492 4.67492 3.5164 4.67492 2.08746L 3.67492 2.08746ZM 2.08746 3.67492C 1.2108 3.67492 0.5 2.96411 0.5 2.08746L -0.5 2.08746C -0.5 3.5164 0.658517 4.67492 2.08746 4.67492L 2.08746 3.67492ZM 0.5 2.08746C 0.5 1.2108 1.2108 0.5 2.08746 0.5L 2.08746 -0.5C 0.658517 -0.5 -0.5 0.658517 -0.5 2.08746L 0.5 2.08746ZM 2.08746 0.5C 2.96411 0.5 3.67492 1.2108 3.67492 2.08746L 4.67492 2.08746C 4.67492 0.658517 3.5164 -0.5 2.08746 -0.5L 2.08746 0.5Z"/>
<path id="path4_stroke" d="M 2.21792 0.5C 2.49407 0.5 2.71792 0.276142 2.71792 0C 2.71792 -0.276142 2.49407 -0.5 2.21792 -0.5L 2.21792 0.5ZM 0 -0.5C -0.276142 -0.5 -0.5 -0.276142 -0.5 0C -0.5 0.276142 -0.276142 0.5 0 0.5L 0 -0.5ZM 2.21792 -0.5L 0 -0.5L 0 0.5L 2.21792 0.5L 2.21792 -0.5Z"/>
</defs>
</svg>
