<svg width="15" height="20" viewBox="0 0 15 20" version="1.1" xmlns="http://www.w3.org/2000/svg" xmlns:xlink="http://www.w3.org/1999/xlink">
<title>bookmarked bites</title>
<desc>Created using Figma</desc>
<g id="Canvas" transform="translate(-3408 1)">
<g id="bookmarked bites">
<g id="Page 1">
<g id="Stroke 1">
<use xlink:href="#path0_fill" transform="translate(3412.35 3.89377)" fill="#9B9B9B"/>
<use xlink:href="#path1_stroke" transform="translate(3412.35 3.89377)" fill="#9B9B9B"/>
</g>
<g id="Stroke 2">
<use xlink:href="#path2_stroke" transform="translate(3409.21 0.482405)" fill="#9B9B9B"/>
</g>
</g>
</g>
</g>
<defs>
<path id="path0_fill" fill-rule="evenodd" d="M 3.14516 0L 3.88784 2.28506L 6.29032 2.28506L 4.34661 3.69745L 5.08887 5.98252L 3.14516 4.57013L 1.20145 5.98252L 1.94371 3.69745L 0 2.28506L 2.40248 2.28506L 3.14516 0Z"/>
<path id="path1_stroke" d="M 3.14516 0L 3.38292 -0.0772745C 3.34944 -0.18027 3.25346 -0.25 3.14516 -0.25C 3.03686 -0.25 2.94088 -0.18027 2.9074 -0.0772745L 3.14516 0ZM 3.88784 2.28506L 3.65008 2.36234C 3.68356 2.46533 3.77954 2.53506 3.88784 2.53506L 3.88784 2.28506ZM 6.29032 2.28506L 6.43728 2.48731C 6.5249 2.42364 6.56156 2.3108 6.52808 2.2078C 6.49461 2.1048 6.39863 2.03506 6.29032 2.03506L 6.29032 2.28506ZM 4.34661 3.69745L 4.19965 3.49521C 4.11205 3.55887 4.07539 3.67169 4.10884 3.77469L 4.34661 3.69745ZM 5.08887 5.98252L 4.94191 6.18476C 5.02953 6.24843 5.14818 6.24844 5.2358 6.18478C 5.32343 6.12113 5.3601 6.00829 5.32664 5.90528L 5.08887 5.98252ZM 3.14516 4.57013L 3.29212 4.36788C 3.20449 4.30421 3.08583 4.30421 2.9982 4.36788L 3.14516 4.57013ZM 1.20145 5.98252L 0.963681 5.90528C 0.930221 6.00829 0.966894 6.12113 1.05452 6.18478C 1.14215 6.24844 1.26079 6.24843 1.34841 6.18476L 1.20145 5.98252ZM 1.94371 3.69745L 2.18148 3.77469C 2.21494 3.67169 2.17828 3.55887 2.09067 3.49521L 1.94371 3.69745ZM 0 2.28506L 0 2.03506C -0.108303 2.03506 -0.20429 2.1048 -0.237762 2.2078C -0.271233 2.3108 -0.234575 2.42364 -0.14696 2.48731L 0 2.28506ZM 2.40248 2.28506L 2.40248 2.53506C 2.51078 2.53506 2.60677 2.46533 2.64024 2.36234L 2.40248 2.28506ZM 2.9074 0.0772745L 3.65008 2.36234L 4.1256 2.20779L 3.38292 -0.0772745L 2.9074 0.0772745ZM 3.88784 2.53506L 6.29032 2.53506L 6.29032 2.03506L 3.88784 2.03506L 3.88784 2.53506ZM 6.14336 2.08282L 4.19965 3.49521L 4.49357 3.8997L 6.43728 2.48731L 6.14336 2.08282ZM 4.10884 3.77469L 4.8511 6.05975L 5.32664 5.90528L 4.58438 3.62022L 4.10884 3.77469ZM 5.23583 5.78027L 3.29212 4.36788L 2.9982 4.77237L 4.94191 6.18476L 5.23583 5.78027ZM 2.9982 4.36788L 1.05449 5.78027L 1.34841 6.18476L 3.29212 4.77237L 2.9982 4.36788ZM 1.43922 6.05975L 2.18148 3.77469L 1.70594 3.62022L 0.963681 5.90528L 1.43922 6.05975ZM 2.09067 3.49521L 0.14696 2.08282L -0.14696 2.48731L 1.79675 3.8997L 2.09067 3.49521ZM 0 2.53506L 2.40248 2.53506L 2.40248 2.03506L 0 2.03506L 0 2.53506ZM 2.64024 2.36234L 3.38292 0.0772745L 2.9074 -0.0772745L 2.16473 2.20779L 2.64024 2.36234Z"/>
<path id="path2_stroke" d="M 12.5806 17.1935L 12.2683 17.584C 12.4184 17.7041 12.624 17.7275 12.7972 17.6442C 12.9705 17.5609 13.0806 17.3858 13.0806 17.1935L 12.5806 17.1935ZM 6.29032 12.1613L 6.60267 11.7709C 6.42006 11.6248 6.16058 11.6248 5.97798 11.7709L 6.29032 12.1613ZM 0 17.1935L -0.5 17.1935C -0.5 17.3858 -0.389827 17.5609 -0.216594 17.6442C -0.0433616 17.7275 0.162263 17.7041 0.312348 17.584L 0 17.1935ZM 0 0L 0 -0.5C -0.276142 -0.5 -0.5 -0.276142 -0.5 1.11022e-16L 0 0ZM 12.5806 0L 13.0806 0C 13.0806 -0.276142 12.8568 -0.5 12.5806 -0.5L 12.5806 0ZM 12.893 16.8031L 6.60267 11.7709L 5.97798 12.5517L 12.2683 17.584L 12.893 16.8031ZM 5.97798 11.7709L -0.312348 16.8031L 0.312348 17.584L 6.60267 12.5517L 5.97798 11.7709ZM 0.5 17.1935L 0.5 0L -0.5 0L -0.5 17.1935L 0.5 17.1935ZM 0 0.5L 12.5806 0.5L 12.5806 -0.5L 0 -0.5L 0 0.5ZM 12.0806 0L 12.0806 17.1935L 13.0806 17.1935L 13.0806 0L 12.0806 0Z"/>
</defs>
</svg>
