<svg width="13" height="21" viewBox="0 0 13 21" version="1.1" xmlns="http://www.w3.org/2000/svg" xmlns:xlink="http://www.w3.org/1999/xlink">
<title>bookmark</title>
<desc>Created using Figma</desc>
<g id="Canvas" transform="translate(-5754 1)">
<g id="bookmark">
<g id="Stroke 1">
<use xlink:href="#path0_stroke" transform="translate(5755.1 3.06957)" fill="#9B9B9B"/>
</g>
<g id="Stroke 3">
<use xlink:href="#path1_stroke" transform="translate(5755.1 -0.376953)" fill="#9B9B9B"/>
</g>
</g>
</g>
<defs>
<path id="path0_stroke" d="M 10.6018 16.1335L 10.2692 16.5068C 10.4163 16.6379 10.6266 16.6703 10.8064 16.5897C 10.9861 16.5091 11.1018 16.3305 11.1018 16.1335L 10.6018 16.1335ZM 5.30068 11.4114L 5.63325 11.038C 5.44368 10.8692 5.15765 10.8692 4.96809 11.0381L 5.30068 11.4114ZM 0 16.1335L -0.5 16.1335C -0.5 16.3305 -0.38433 16.5091 -0.204579 16.5897C -0.0248285 16.6703 0.185497 16.6379 0.33259 16.5068L 0 16.1335ZM 0 0L 0 -0.5C -0.276142 -0.5 -0.5 -0.276142 -0.5 1.11022e-16L 0 0ZM 10.6018 0L 11.1018 0C 11.1018 -0.276142 10.8779 -0.5 10.6018 -0.5L 10.6018 0ZM 10.9344 15.7601L 5.63325 11.038L 4.96811 11.7848L 10.2692 16.5068L 10.9344 15.7601ZM 4.96809 11.0381L -0.33259 15.7601L 0.33259 16.5068L 5.63327 11.7847L 4.96809 11.0381ZM 0.5 16.1335L 0.5 0L -0.5 0L -0.5 16.1335L 0.5 16.1335ZM 0 0.5L 10.6018 0.5L 10.6018 -0.5L 0 -0.5L 0 0.5ZM 10.1018 0L 10.1018 16.1335L 11.1018 16.1335L 11.1018 0L 10.1018 0Z"/>
<path id="path1_stroke" d="M 0 -0.5C -0.276142 -0.5 -0.5 -0.276142 -0.5 0C -0.5 0.276142 -0.276142 0.5 0 0.5L 0 -0.5ZM 10.6018 0.5C 10.8779 0.5 11.1018 0.276142 11.1018 0C 11.1018 -0.276142 10.8779 -0.5 10.6018 -0.5L 10.6018 0.5ZM 0 0.5L 10.6018 0.5L 10.6018 -0.5L 0 -0.5L 0 0.5Z"/>
</defs>
</svg>
