<svg width="24" height="17" viewBox="0 0 24 17" version="1.1" xmlns="http://www.w3.org/2000/svg" xmlns:xlink="http://www.w3.org/1999/xlink">
<title>change chapters</title>
<desc>Created using Figma</desc>
<g id="Canvas" transform="translate(4988 1675)">
<rect x="-4988" y="-1675" width="24" height="17" fill="#FFFFFF"/>
<clipPath id="clip-0" clip-rule="evenodd">
<path d="M -5021 -1930L -3997 -1930L -3997 -1008L -5021 -1008L -5021 -1930Z" fill="#FFFFFF"/>
</clipPath>
<g id="SIS Ch1-1" clip-path="url(#clip-0)">
<g id="Reading Nav">
<g id="Nav">
<g id="change chapters">
<g id="Stroke 1">
<use xlink:href="#path0_stroke" transform="translate(-4986.77 -1673.6)" fill="#9B9B9B"/>
</g>
<g id="Stroke 3">
<use xlink:href="#path1_stroke" transform="translate(-4975.62 -1673.6)" fill="#9B9B9B"/>
</g>
<g id="Page 1">
<g id="Stroke 1">
<use xlink:href="#path2_stroke" transform="matrix(0.866025 0.5 -0.5 0.866025 -4970.59 -1669.11)" fill="#9B9B9B"/>
</g>
<g id="Stroke 3">
<use xlink:href="#path3_stroke" transform="matrix(0.866025 0.5 -0.5 0.866025 -4977.48 -1671.03)" fill="#9B9B9B"/>
</g>
</g>
</g>
</g>
</g>
</g>
</g>
<defs>
<path id="path0_stroke" d="M 0 14.5L -0.5 14.5C -0.5 14.7761 -0.276142 15 1.11022e-16 15L 0 14.5ZM 22 14.5L 22 15C 22.2761 15 22.5 14.7761 22.5 14.5L 22 14.5ZM 22 0L 22.5 0C 22.5 -0.276142 22.2761 -0.5 22 -0.5L 22 0ZM 0 0L 0 -0.5C -0.276142 -0.5 -0.5 -0.276142 -0.5 1.11022e-16L 0 0ZM 0 15L 22 15L 22 14L 0 14L 0 15ZM 22.5 14.5L 22.5 0L 21.5 0L 21.5 14.5L 22.5 14.5ZM 22 -0.5L 0 -0.5L 0 0.5L 22 0.5L 22 -0.5ZM -0.5 0L -0.5 14.5L 0.5 14.5L 0.5 0L -0.5 0Z"/>
<path id="path1_stroke" d="M 0.5 0C 0.5 -0.276142 0.276142 -0.5 0 -0.5C -0.276142 -0.5 -0.5 -0.276142 -0.5 0L 0.5 0ZM -0.5 14.5C -0.5 14.7761 -0.276142 15 0 15C 0.276142 15 0.5 14.7761 0.5 14.5L -0.5 14.5ZM -0.5 0L -0.5 14.5L 0.5 14.5L 0.5 0L -0.5 0Z"/>
<path id="path2_stroke" d="M 0 0L 0.268439 -0.42183C 0.114479 -0.519805 -0.0806309 -0.526119 -0.240604 -0.438303C -0.400577 -0.350487 -0.5 -0.182491 -0.5 0L 0 0ZM 2.8 1.78183L 3.06844 2.20366C 3.21266 2.11188 3.3 1.95278 3.3 1.78183C 3.3 1.61088 3.21266 1.45178 3.06844 1.36L 2.8 1.78183ZM 0 3.56367L -0.5 3.56367C -0.5 3.74616 -0.400577 3.91415 -0.240604 4.00197C -0.0806309 4.08979 0.114479 4.08347 0.268439 3.9855L 0 3.56367ZM -0.268439 0.42183L 2.53156 2.20366L 3.06844 1.36L 0.268439 -0.42183L -0.268439 0.42183ZM 2.53156 1.36L -0.268439 3.14184L 0.268439 3.9855L 3.06844 2.20366L 2.53156 1.36ZM 0.5 3.56367L 0.5 0L -0.5 0L -0.5 3.56367L 0.5 3.56367Z"/>
<path id="path3_stroke" d="M -0.5 6.92205C -0.5 7.19819 -0.276142 7.42205 0 7.42205C 0.276142 7.42205 0.5 7.19819 0.5 6.92205L -0.5 6.92205ZM 6.92205 0.5C 7.19819 0.5 7.42205 0.276142 7.42205 0C 7.42205 -0.276142 7.19819 -0.5 6.92205 -0.5L 6.92205 0.5ZM 0.5 6.92205C 0.5 3.37521 3.37521 0.5 6.92205 0.5L 6.92205 -0.5C 2.82293 -0.5 -0.5 2.82293 -0.5 6.92205L 0.5 6.92205Z"/>
</defs>
</svg>
