<svg width="12" height="18" viewBox="0 0 12 18" version="1.1" xmlns="http://www.w3.org/2000/svg" xmlns:xlink="http://www.w3.org/1999/xlink">
<title>facebook</title>
<desc>Created using Figma</desc>
<g id="Canvas" transform="translate(-3182 1)">
<g id="facebook">
<g id="Page 1">
<g id="Stroke 1">
<use xlink:href="#path0_stroke" transform="translate(3184.88 0.348482)" fill="#9B9B9B"/>
</g>
<g id="Stroke 3">
<use xlink:href="#path1_stroke" transform="translate(3183.16 8.18732)" fill="#9B9B9B"/>
</g>
</g>
</g>
</g>
<defs>
<path id="path0_stroke" d="M 6.83806 3.87C 6.83806 4.42228 7.28578 4.87 7.83806 4.87C 8.39035 4.87 8.83806 4.42228 8.83806 3.87L 6.83806 3.87ZM -1 15.4839C -1 16.0362 -0.552285 16.4839 0 16.4839C 0.552285 16.4839 1 16.0362 1 15.4839L -1 15.4839ZM 8.83806 3.87C 8.83806 1.16174 6.59456 -1 3.91903 -1L 3.91903 1C 5.52286 1 6.83806 2.2989 6.83806 3.87L 8.83806 3.87ZM 3.91903 -1C 1.24056 -1 -1 1.17336 -1 3.87871L 1 3.87871C 1 2.30471 2.31815 1 3.91903 1L 3.91903 -1ZM -1 3.87871L -1 15.4839L 1 15.4839L 1 3.87871L -1 3.87871Z"/>
<path id="path1_stroke" d="M 6.88161 1C 7.4339 1 7.88161 0.552285 7.88161 0C 7.88161 -0.552285 7.4339 -1 6.88161 -1L 6.88161 1ZM 0 -1C -0.552285 -1 -1 -0.552285 -1 0C -1 0.552285 -0.552285 1 0 1L 0 -1ZM 6.88161 -1L 0 -1L 0 1L 6.88161 1L 6.88161 -1Z"/>
</defs>
</svg>
