<svg width="27" height="28" viewBox="0 0 27 28" version="1.1" xmlns="http://www.w3.org/2000/svg" xmlns:xlink="http://www.w3.org/1999/xlink">
<title>Fanart icon</title>
<desc>Created using Figma</desc>
<g id="Canvas" transform="translate(4173 1478)">
<g id="Fanart icon">
<g id="Group 2">
<g id="Rectangle">
<use xlink:href="#path0_fill" transform="translate(-4172.02 -1476.6)" fill="#D6D6D6"/>
</g>
<g id="Oval">
<use xlink:href="#path1_stroke" transform="translate(-4156.19 -1473.09)" fill="#FFFFFF"/>
</g>
<g id="Path 3">
<use xlink:href="#path2_stroke" transform="translate(-4167.97 -1467.99)" fill="#FFFFFF"/>
</g>
</g>
</g>
</g>
<defs>
<path id="path0_fill" fill-rule="evenodd" d="M 0 2C 0 0.895431 0.895431 0 2 0L 23.1654 0C 24.27 0 25.1654 0.895431 25.1654 2L 25.1654 20.325C 25.1654 21.4295 24.27 22.325 23.1654 22.325L 19.0235 22.325L 16.0218 25.9792L 14.4327 22.325L 2 22.325C 0.895431 22.325 0 21.4295 0 20.325L 0 2Z"/>
<path id="path1_stroke" d="M 2.48423 5.46846C 4.13238 5.46846 5.46846 4.13238 5.46846 2.48423L 4.46846 2.48423C 4.46846 3.58009 3.58009 4.46846 2.48423 4.46846L 2.48423 5.46846ZM 5.46846 2.48423C 5.46846 0.836086 4.13238 -0.5 2.48423 -0.5L 2.48423 0.5C 3.58009 0.5 4.46846 1.38837 4.46846 2.48423L 5.46846 2.48423ZM 2.48423 -0.5C 0.836086 -0.5 -0.5 0.836086 -0.5 2.48423L 0.5 2.48423C 0.5 1.38837 1.38837 0.5 2.48423 0.5L 2.48423 -0.5ZM -0.5 2.48423C -0.5 4.13238 0.836086 5.46846 2.48423 5.46846L 2.48423 4.46846C 1.38837 4.46846 0.5 3.58009 0.5 2.48423L -0.5 2.48423Z"/>
<path id="path2_stroke" d="M 11.1387 3.2054L 10.791 2.84601L 11.1387 3.2054ZM 15.8547 7.93103L 15.4449 8.21748L 15.8547 7.93103ZM 1.77013 9.5732L 1.77274 10.0732L 1.77013 9.5732ZM 12.6535 3.35127L 13.0633 3.06482L 12.6535 3.35127ZM 1.33531 8.31739L 5.28298 1.68845L 4.42379 1.17679L 0.476128 7.80572L 1.33531 8.31739ZM 6.14057 1.68579L 7.85475 4.52405L 8.71074 4.00706L 6.99657 1.16881L 6.14057 1.68579ZM 10.1816 4.82674L 11.4863 3.56479L 10.791 2.84601L 9.48636 4.10796L 10.1816 4.82674ZM 12.2437 3.63773L 15.4449 8.21748L 16.2646 7.64457L 13.0633 3.06482L 12.2437 3.63773ZM 15.0377 9.00393L 1.76752 9.07321L 1.77274 10.0732L 15.043 10.0039L 15.0377 9.00393ZM 0.476128 7.80572C -0.121099 8.80859 0.605526 10.0793 1.77274 10.0732L 1.76752 9.07321C 1.37845 9.07524 1.13624 8.65167 1.33531 8.31739L 0.476128 7.80572ZM 5.28298 1.68845C 5.47616 1.36407 5.94538 1.36261 6.14057 1.68579L 6.99657 1.16881C 6.41101 0.199273 5.00332 0.203639 4.42379 1.17679L 5.28298 1.68845ZM 7.85475 4.52405C 8.35301 5.34904 9.48885 5.4968 10.1816 4.82674L 9.48636 4.10796C 9.25544 4.33131 8.87683 4.28206 8.71074 4.00706L 7.85475 4.52405ZM 11.4863 3.56479C 11.7074 3.35089 12.0674 3.38556 12.2437 3.63773L 13.0633 3.06482C 12.5345 2.30831 11.4545 2.20431 10.791 2.84601L 11.4863 3.56479ZM 15.4449 8.21748C 15.6759 8.54793 15.4409 9.00182 15.0377 9.00393L 15.043 10.0039C 16.2524 9.9976 16.9575 8.6359 16.2646 7.64457L 15.4449 8.21748Z"/>
</defs>
</svg>
