<svg width="13" height="21" viewBox="0 0 13 21" version="1.1" xmlns="http://www.w3.org/2000/svg" xmlns:xlink="http://www.w3.org/1999/xlink">
<title>Group 6</title>
<desc>Created using Figma</desc>
<g id="Canvas" transform="translate(-151 -82)">
<rect x="151" y="82" width="13" height="21" fill="#FFFFFF"/>
<clipPath id="clip-0" clip-rule="evenodd">
<path d="M 42 -443L 1066 -443L 1066 1226L 42 1226L 42 -443Z" fill="#FFFFFF"/>
</clipPath>
<g id="Carousel" clip-path="url(#clip-0)">
<path d="M 42 -443L 1066 -443L 1066 1226L 42 1226L 42 -443Z" fill="#FFFFFF"/>
<g id="arrows">
<g id="Group 6">
<g id="Page 1">
<use xlink:href="#path0_stroke" transform="matrix(-1 -1.22465e-16 1.22465e-16 -1 162.004 101.086)" fill="#BEBEBE"/>
</g>
</g>
</g>
</g>
</g>
<defs>
<path id="path0_stroke" d="M 0.668965 -0.743294C 0.258455 -1.11275 -0.373835 -1.07947 -0.743294 -0.668965C -1.11275 -0.258455 -1.07947 0.373835 -0.668965 0.743294L 0.668965 -0.743294ZM 9.84481 8.86033L 10.5138 9.60362C 10.7245 9.41398 10.8448 9.14381 10.8448 8.86033C 10.8448 8.57684 10.7245 8.30668 10.5138 8.11703L 9.84481 8.86033ZM -0.668965 16.9774C -1.07947 17.3468 -1.11275 17.9791 -0.743294 18.3896C -0.373835 18.8001 0.258455 18.8334 0.668965 18.4639L -0.668965 16.9774ZM -0.668965 0.743294L 9.17584 9.60362L 10.5138 8.11703L 0.668965 -0.743294L -0.668965 0.743294ZM 9.17584 8.11703L -0.668965 16.9774L 0.668965 18.4639L 10.5138 9.60362L 9.17584 8.11703Z"/>
</defs>
</svg>
