<svg width="19" height="12" viewBox="0 0 19 12" version="1.1" xmlns="http://www.w3.org/2000/svg" xmlns:xlink="http://www.w3.org/1999/xlink">
<title>Menu</title>
<desc>Created using Figma</desc>
<g id="Canvas" transform="translate(-351 0)">
<g id="Menu">
<g id="Page 1">
<g id="Fill 1">
<use xlink:href="#path0_fill" transform="translate(357 1.0002)"/>
</g>
<g id="Stroke 2">
<use xlink:href="#path1_stroke" transform="translate(357 1)" fill="#333333"/>
</g>
<g id="Fill 4">
<use xlink:href="#path2_fill" transform="translate(352 5.9997)" fill="#333333"/>
</g>
<g id="Stroke 5">
<use xlink:href="#path3_stroke" transform="translate(352 6)" fill="#333333"/>
</g>
<g id="Fill 7">
<use xlink:href="#path4_fill" transform="translate(359 11.0001)" fill="#333333"/>
</g>
<g id="Stroke 8">
<use xlink:href="#path5_stroke" transform="translate(359 11)" fill="#333333"/>
</g>
</g>
</g>
</g>
<defs>
<path id="path0_fill" fill-rule="evenodd" d="M 0 0L 12 0L 0 0Z"/>
<path id="path1_stroke" d="M 0 -0.75C -0.414214 -0.75 -0.75 -0.414214 -0.75 0C -0.75 0.414214 -0.414214 0.75 0 0.75L 0 -0.75ZM 12 0.75C 12.4142 0.75 12.75 0.414214 12.75 0C 12.75 -0.414214 12.4142 -0.75 12 -0.75L 12 0.75ZM 0 0.75L 12 0.75L 12 -0.75L 0 -0.75L 0 0.75Z"/>
<path id="path2_fill" fill-rule="evenodd" d="M 0 0L 17 0L 0 0Z"/>
<path id="path3_stroke" d="M 0 -0.75C -0.414214 -0.75 -0.75 -0.414214 -0.75 0C -0.75 0.414214 -0.414214 0.75 0 0.75L 0 -0.75ZM 17 0.75C 17.4142 0.75 17.75 0.414214 17.75 0C 17.75 -0.414214 17.4142 -0.75 17 -0.75L 17 0.75ZM 0 0.75L 17 0.75L 17 -0.75L 0 -0.75L 0 0.75Z"/>
<path id="path4_fill" fill-rule="evenodd" d="M 0 0L 10 0L 0 0Z"/>
<path id="path5_stroke" d="M 0 -0.75C -0.414214 -0.75 -0.75 -0.414214 -0.75 0C -0.75 0.414214 -0.414214 0.75 0 0.75L 0 -0.75ZM 10 0.75C 10.4142 0.75 10.75 0.414214 10.75 0C 10.75 -0.414214 10.4142 -0.75 10 -0.75L 10 0.75ZM 0 0.75L 10 0.75L 10 -0.75L 0 -0.75L 0 0.75Z"/>
</defs>
</svg>
