<svg width="18" height="17" viewBox="0 0 18 17" version="1.1" xmlns="http://www.w3.org/2000/svg" xmlns:xlink="http://www.w3.org/1999/xlink">
<title>search</title>
<desc>Created using Figma</desc>
<g id="Canvas" transform="translate(-5865 1)">
<g id="search">
<g id="Page 1">
<g id="Stroke 1">
<use xlink:href="#path0_stroke" transform="translate(5866.64 0.5)" fill="#333333"/>
</g>
<g id="Stroke 3">
<use xlink:href="#path1_stroke" transform="translate(5876.29 9.9495)" fill="#333333"/>
</g>
</g>
</g>
</g>
<defs>
<path id="path0_stroke" d="M 9.01667 2.16833C 10.9078 4.05944 10.9078 7.12556 9.01667 9.01667L 10.0773 10.0773C 12.5542 7.60044 12.5542 3.58456 10.0773 1.10767L 9.01667 2.16833ZM 9.01667 9.01667C 7.12556 10.9078 4.05944 10.9078 2.16833 9.01667L 1.10767 10.0773C 3.58456 12.5542 7.60044 12.5542 10.0773 10.0773L 9.01667 9.01667ZM 2.16833 9.01667C 0.277223 7.12556 0.277223 4.05944 2.16833 2.16833L 1.10767 1.10767C -1.36922 3.58456 -1.36922 7.60044 1.10767 10.0773L 2.16833 9.01667ZM 2.16833 2.16833C 4.05944 0.277223 7.12556 0.277223 9.01667 2.16833L 10.0773 1.10767C 7.60044 -1.36922 3.58456 -1.36922 1.10767 1.10767L 2.16833 2.16833Z"/>
<path id="path1_stroke" d="M 4.45267 5.51333C 4.74556 5.80622 5.22044 5.80622 5.51333 5.51333C 5.80622 5.22044 5.80622 4.74556 5.51333 4.45267L 4.45267 5.51333ZM 0.53033 -0.53033C 0.237437 -0.823223 -0.237437 -0.823223 -0.53033 -0.53033C -0.823223 -0.237437 -0.823223 0.237437 -0.53033 0.53033L 0.53033 -0.53033ZM 5.51333 4.45267L 0.53033 -0.53033L -0.53033 0.53033L 4.45267 5.51333L 5.51333 4.45267Z"/>
</defs>
</svg>
