<svg width="17" height="14" viewBox="0 0 17 14" version="1.1" xmlns="http://www.w3.org/2000/svg" xmlns:xlink="http://www.w3.org/1999/xlink">
<title>twitter</title>
<desc>Created using Figma</desc>
<g id="Canvas" transform="translate(-7167 0)">
<g id="twitter">
<g id="Page 1">
<use xlink:href="#path0_stroke" transform="translate(7168.2 1.48223)" fill="#9B9B9B"/>
</g>
</g>
</g>
<defs>
<path id="path0_stroke" d="M 14.0252 1.34282L 14.4284 1.63847C 14.5316 1.49765 14.5539 1.31316 14.4872 1.15179C 14.4205 0.99041 14.2744 0.875534 14.1019 0.848741L 14.0252 1.34282ZM 11.7406 0.903199L 11.3761 1.24543C 11.452 1.32627 11.5526 1.37959 11.6621 1.397L 11.7406 0.903199ZM 6.86625 3.51212L 6.84116 4.01149C 6.99793 4.01936 7.14931 3.95316 7.24995 3.8327C 7.3506 3.71224 7.38883 3.55151 7.35321 3.39864L 6.86625 3.51212ZM 0.970858 0.523467L 1.35844 0.207587C 1.25482 0.0804408 1.09542 0.0122053 0.931894 0.0249873C 0.768368 0.0377694 0.621511 0.129943 0.538901 0.271646L 0.970858 0.523467ZM 4.26025 7.78823L 4.72053 7.98352C 4.77452 7.85629 4.77343 7.71238 4.71752 7.58598C 4.66162 7.45958 4.55588 7.36196 4.42543 7.3163L 4.26025 7.78823ZM 0 10.0453L 0.0584698 9.54868C -0.172822 9.52145 -0.392288 9.65751 -0.470761 9.87678C -0.549233 10.096 -0.465929 10.3405 -0.269878 10.4662L 0 10.0453ZM 12.515 3.47489L 12.1368 3.1478C 12.065 3.23087 12.0225 3.33528 12.0159 3.44492L 12.515 3.47489ZM 14.1019 0.848741C 12.9417 0.670526 12.4984 0.519238 11.8191 0.409399L 11.6621 1.397C 12.2576 1.48981 12.7027 1.64153 13.9484 1.8369L 14.1019 0.848741ZM 12.1051 0.560967C 11.4925 -0.0915569 10.6189 -0.5 9.65257 -0.5L 9.65257 0.5C 10.332 0.5 10.945 0.786275 11.3761 1.24543L 12.1051 0.560967ZM 9.65257 -0.5C 7.48287 -0.5 5.8896 1.52423 6.3793 3.62559L 7.35321 3.39864C 7.00898 1.92152 8.12984 0.5 9.65257 0.5L 9.65257 -0.5ZM 6.89135 3.01275C 4.66101 2.90067 2.68301 1.83282 1.35844 0.207587L 0.583276 0.839347C 2.07967 2.67541 4.31724 3.88465 6.84116 4.01149L 6.89135 3.01275ZM 0.538901 0.271646C 0.281803 0.712655 0.187394 1.36677 0.20197 2.04822C 0.217852 2.73366 0.353583 3.56631 0.615145 4.35968C 1.14243 5.9489 2.23248 7.60823 4.09507 8.26016L 4.42543 7.3163C 2.96852 6.80637 2.03916 5.47608 1.56427 4.04477C 1.32474 3.32787 1.21369 2.64252 1.20174 2.02684C 1.18849 1.40717 1.2852 0.977039 1.40281 0.775287L 0.538901 0.271646ZM 3.79997 7.59293C 3.14091 9.14624 1.43871 9.7112 0.0584698 9.54868L -0.0584698 10.5418C 1.59656 10.7367 3.83023 10.0819 4.72053 7.98352L 3.79997 7.59293ZM -0.269878 10.4662C 1.05387 11.3097 2.6935 11.8246 4.38488 11.8305L 4.38488 10.8305C 2.84547 10.8363 1.47767 10.404 0.269878 9.62434L -0.269878 10.4662ZM 4.38488 11.8305C 7.17733 11.8305 9.28775 10.7775 10.7249 9.18976C 12.1227 7.63131 12.8886 5.51075 13.0141 3.50486L 12.0159 3.44492C 11.9089 5.30983 11.265 7.11706 9.98348 8.51868C 8.74126 9.89106 6.90286 10.8305 4.38488 10.8305L 4.38488 11.8305ZM 12.8931 3.80198C 13.5596 3.02458 13.8457 2.42935 14.4284 1.63847L 13.6219 1.04717C 12.9874 1.91636 12.7225 2.47749 12.1368 3.1478L 12.8931 3.80198Z"/>
</defs>
</svg>
