<svg width="61" height="62" viewBox="0 0 61 62" version="1.1" xmlns="http://www.w3.org/2000/svg" xmlns:xlink="http://www.w3.org/1999/xlink">
<title>Group 4</title>
<desc>Created using Figma</desc>
<g id="Canvas" transform="translate(1549 -50)">
<g id="Group 4">
<g id="Oval 2" filter="url(#filter0_d)">
<use xlink:href="#path0_fill" transform="translate(-1548 50.9492)" fill="#9B9B9B"/>
</g>
<g id="Page 1">
<g id="Stroke 1">
<use xlink:href="#path1_stroke" transform="translate(-1519.5 63.9976)" fill="#FFFFFF"/>
</g>
<g id="Stroke 2">
<use xlink:href="#path2_stroke" transform="translate(-1524.92 62.0518)" fill="#FFFFFF"/>
</g>
<g id="Stroke 4">
<use xlink:href="#path3_stroke" transform="translate(-1533.24 75.0635)" fill="#FFFFFF"/>
</g>
</g>
</g>
</g>
<defs>
<filter id="filter0_d" filterUnits="userSpaceOnUse" x="-1549" y="50" width="61" height="62" color-interpolation-filters="sRGB">
<feFlood flood-opacity="0" result="BackgroundImageFix"/>
<feColorMatrix in="SourceAlpha" type="matrix" values="0 0 0 0 0 0 0 0 0 0 0 0 0 0 0 0 0 0 255 0"/>
<feOffset dx="0" dy="1"/>
<feGaussianBlur stdDeviation="0.5"/>
<feColorMatrix type="matrix" values="0 0 0 0 0 0 0 0 0 0 0 0 0 0 0 0 0 0 0.15 0"/>
<feBlend mode="normal" in2="BackgroundImageFix" result="effect1_dropShadow"/>
<feBlend mode="normal" in="SourceGraphic" in2="effect1_dropShadow" result="shape"/>
</filter>
<path id="path0_fill" fill-rule="evenodd" d="M 29.5 59C 45.7924 59 59 45.7924 59 29.5C 59 13.2076 45.7924 0 29.5 0C 13.2076 0 0 13.2076 0 29.5C 0 45.7924 13.2076 59 29.5 59Z"/>
<path id="path1_stroke" d="M 1.66667 0.152838C 1.66667 -0.399447 1.21895 -0.847162 0.666667 -0.847162C 0.114382 -0.847162 -0.333333 -0.399447 -0.333333 0.152838L 1.66667 0.152838ZM -0.333333 20.765C -0.333333 21.3173 0.114382 21.765 0.666667 21.765C 1.21895 21.765 1.66667 21.3173 1.66667 20.765L -0.333333 20.765ZM -0.333333 0.152838L -0.333333 20.765L 1.66667 20.765L 1.66667 0.152838L -0.333333 0.152838Z"/>
<path id="path2_stroke" d="M -0.79763 7.88099C -1.13074 8.32151 -1.04367 8.94866 -0.603147 9.28177C -0.162628 9.61487 0.464521 9.5278 0.79763 9.08728L -0.79763 7.88099ZM 6.41548 0L 7.21311 -0.603147C 7.02411 -0.853101 6.72886 -1 6.41548 -1C 6.10211 -1 5.80686 -0.853101 5.61785 -0.603147L 6.41548 0ZM 12.0333 9.08728C 12.3664 9.5278 12.9936 9.61487 13.4341 9.28177C 13.8746 8.94866 13.9617 8.32151 13.6286 7.88099L 12.0333 9.08728ZM 0.79763 9.08728L 7.21311 0.603147L 5.61785 -0.603147L -0.79763 7.88099L 0.79763 9.08728ZM 5.61785 0.603147L 12.0333 9.08728L 13.6286 7.88099L 7.21311 -0.603147L 5.61785 0.603147Z"/>
<path id="path3_stroke" d="M 21.964 -1C 21.4117 -1 20.964 -0.552285 20.964 -5.13093e-15C 20.964 0.552285 21.4117 1 21.964 1L 21.964 -1ZM 29.4858 3.85938e-14L 30.4858 3.85938e-14C 30.4858 -0.552285 30.0381 -1 29.4858 -1L 29.4858 3.85938e-14ZM 29.4858 19.3985L 29.4858 20.3985C 30.0381 20.3985 30.4858 19.9508 30.4858 19.3985L 29.4858 19.3985ZM 0 19.3985L -1 19.3985C -1 19.9508 -0.552285 20.3985 2.22045e-16 20.3985L 0 19.3985ZM 0 3.85938e-14L -4.62476e-15 -1C -0.552285 -1 -1 -0.552285 -1 3.88158e-14L 0 3.85938e-14ZM 8.34504 1C 8.89732 1 9.34504 0.552285 9.34504 -4.62476e-15C 9.34504 -0.552285 8.89732 -1 8.34504 -1L 8.34504 1ZM 21.964 1L 29.4858 1L 29.4858 -1L 21.964 -1L 21.964 1ZM 28.4858 3.85938e-14L 28.4858 19.3985L 30.4858 19.3985L 30.4858 3.85938e-14L 28.4858 3.85938e-14ZM 29.4858 18.3985L 0 18.3985L 0 20.3985L 29.4858 20.3985L 29.4858 18.3985ZM 1 19.3985L 1 3.85938e-14L -1 3.85938e-14L -1 19.3985L 1 19.3985ZM 4.62476e-15 1L 8.34504 1L 8.34504 -1L -4.62476e-15 -1L 4.62476e-15 1Z"/>
</defs>
</svg>
